<svg id="export" xmlns="http://www.w3.org/2000/svg" xmlns:xlink="http://www.w3.org/1999/xlink" width="24" height="24" viewBox="0 0 24 24"><defs><style>.cls-1{fill:#f07737;}.cls-2{fill:url(#icon_gradient);}.cls-3{fill:url(#icon_gradient-2);}</style><linearGradient id="icon_gradient" x1="2.69" y1="5.19" x2="21.44" y2="5.19" gradientUnits="userSpaceOnUse"><stop offset="0.02" stop-color="#fff" stop-opacity="0.2"/><stop offset="0.32" stop-color="#f2f3f4" stop-opacity="0.19"/><stop offset="0.58" stop-color="#cacdd1" stop-opacity="0.15"/><stop offset="0.81" stop-color="#878d96" stop-opacity="0.08"/><stop offset="1" stop-color="#3b4554" stop-opacity="0.01"/></linearGradient><linearGradient id="icon_gradient-2" x1="2.7" y1="18.79" x2="21.45" y2="18.79" xlink:href="#icon_gradient"/></defs><title>icon-jupyter</title><g id="_jupyter_" data-name="&lt;jupyter&gt;"><g id="_artwork_" data-name="&lt;artwork&gt;"><path class="cls-1" d="M21.44,8.38a9.15,9.15,0,0,0-2.26-1.74A13,13,0,0,0,15,5.19,23.48,23.48,0,0,0,12.62,5a14.19,14.19,0,0,0-3.5.23A12.48,12.48,0,0,0,3.67,7.46c-.34.26-.66.57-1,.85a10.09,10.09,0,0,1,18.75.07Z"/><path class="cls-1" d="M2.7,15.66a9.88,9.88,0,0,0,1.84,1.45A12.61,12.61,0,0,0,8,18.55a14.73,14.73,0,0,0,2.8.45A16,16,0,0,0,17,18.29a10.86,10.86,0,0,0,4.12-2.38c.11-.1.2-.21.31-.33a10.08,10.08,0,0,1-18.75.08Z"/></g><g id="_gradient_" data-name="&lt;gradient&gt;"><path class="cls-2" d="M9.12,5.18A14.19,14.19,0,0,1,12.62,5,23.48,23.48,0,0,1,15,5.19a13,13,0,0,1,4.19,1.45,9.15,9.15,0,0,1,2.26,1.74A10.09,10.09,0,0,0,2.69,8.31c.32-.28.64-.59,1-.85A12.48,12.48,0,0,1,9.12,5.18Z"/><path class="cls-3" d="M21.14,15.91A10.86,10.86,0,0,1,17,18.29a16,16,0,0,1-6.23.71A14.73,14.73,0,0,1,8,18.55a12.61,12.61,0,0,1-3.45-1.44A9.88,9.88,0,0,1,2.7,15.66a10.08,10.08,0,0,0,18.75-.08C21.34,15.7,21.25,15.81,21.14,15.91Z"/></g></g></svg>