<svg xmlns="http://www.w3.org/2000/svg" xmlns:xlink="http://www.w3.org/1999/xlink" width="24" height="24" viewBox="0 0 24 24"><defs><style>.cls-1{fill:url(#icon_gradient);}.cls-2{fill:url(#icon_gradient-2);}.cls-3{fill:url(#icon_gradient-3);}.cls-4{fill:url(#icon_gradient-4);}.cls-5{fill:url(#icon_gradient-5);}.cls-6{fill:url(#icon_gradient-6);}.cls-7{fill:#dadada;}.cls-8{fill:#71747c;}</style><linearGradient id="icon_gradient" x1="1.98" y1="4.51" x2="5.98" y2="4.51" gradientUnits="userSpaceOnUse"><stop offset="0.02" stop-color="#fff" stop-opacity="0.2"/><stop offset="0.32" stop-color="#f2f3f4" stop-opacity="0.19"/><stop offset="0.58" stop-color="#cacdd1" stop-opacity="0.15"/><stop offset="0.81" stop-color="#878d96" stop-opacity="0.08"/><stop offset="1" stop-color="#3b4554" stop-opacity="0.01"/></linearGradient><linearGradient id="icon_gradient-2" x1="1.98" y1="7.51" x2="5.98" y2="7.51" xlink:href="#icon_gradient"/><linearGradient id="icon_gradient-3" x1="1.98" y1="10.51" x2="5.98" y2="10.51" xlink:href="#icon_gradient"/><linearGradient id="icon_gradient-4" x1="1.98" y1="13.51" x2="5.98" y2="13.51" xlink:href="#icon_gradient"/><linearGradient id="icon_gradient-5" x1="1.98" y1="16.51" x2="5.98" y2="16.51" xlink:href="#icon_gradient"/><linearGradient id="icon_gradient-6" x1="1.98" y1="19.51" x2="5.98" y2="19.51" xlink:href="#icon_gradient"/></defs><title>icon-notebook</title><g id="gradient"><path class="cls-1" d="M2.48,5h3a.51.51,0,0,0,.5-.5.5.5,0,0,0-.5-.5h-3a.5.5,0,0,0-.5.5A.5.5,0,0,0,2.48,5Z"/><path class="cls-2" d="M5.48,7h-3a.5.5,0,0,0-.5.5.5.5,0,0,0,.5.5h3a.51.51,0,0,0,.5-.5A.5.5,0,0,0,5.48,7Z"/><path class="cls-3" d="M5.48,10h-3a.5.5,0,0,0-.5.5.5.5,0,0,0,.5.5h3a.51.51,0,0,0,.5-.5A.5.5,0,0,0,5.48,10Z"/><path class="cls-4" d="M5.48,13h-3a.5.5,0,0,0-.5.5.5.5,0,0,0,.5.5h3a.51.51,0,0,0,.5-.5A.5.5,0,0,0,5.48,13Z"/><path class="cls-5" d="M5.48,16h-3a.5.5,0,0,0-.5.5.5.5,0,0,0,.5.5h3a.51.51,0,0,0,.5-.5A.5.5,0,0,0,5.48,16Z"/><path class="cls-6" d="M5.48,19h-3a.5.5,0,0,0-.5.5.5.5,0,0,0,.5.5h3a.51.51,0,0,0,.5-.5A.5.5,0,0,0,5.48,19Z"/></g><g id="export"><g id="_notebook_" data-name="&lt;notebook&gt;"><g id="_artwork_" data-name="&lt;artwork&gt;"><rect class="cls-7" x="3.98" y="2.01" width="18" height="20"/><rect class="cls-8" x="1.98" y="4.01" width="4" height="1" rx="0.5" ry="0.5"/><rect class="cls-8" x="1.98" y="7.01" width="4" height="1" rx="0.5" ry="0.5"/><rect class="cls-8" x="1.98" y="10.01" width="4" height="1" rx="0.5" ry="0.5"/><rect class="cls-8" x="1.98" y="13.01" width="4" height="1" rx="0.5" ry="0.5"/><rect class="cls-8" x="1.98" y="16.01" width="4" height="1" rx="0.5" ry="0.5"/><rect class="cls-8" x="1.98" y="19.01" width="4" height="1" rx="0.5" ry="0.5"/></g><g id="_gradient_" data-name="&lt;gradient&gt;"><path class="cls-1" d="M2.48,5h3a.51.51,0,0,0,.5-.5.5.5,0,0,0-.5-.5h-3a.5.5,0,0,0-.5.5A.5.5,0,0,0,2.48,5Z"/><path class="cls-2" d="M5.48,7h-3a.5.5,0,0,0-.5.5.5.5,0,0,0,.5.5h3a.51.51,0,0,0,.5-.5A.5.5,0,0,0,5.48,7Z"/><path class="cls-3" d="M5.48,10h-3a.5.5,0,0,0-.5.5.5.5,0,0,0,.5.5h3a.51.51,0,0,0,.5-.5A.5.5,0,0,0,5.48,10Z"/><path class="cls-4" d="M5.48,13h-3a.5.5,0,0,0-.5.5.5.5,0,0,0,.5.5h3a.51.51,0,0,0,.5-.5A.5.5,0,0,0,5.48,13Z"/><path class="cls-5" d="M5.48,16h-3a.5.5,0,0,0-.5.5.5.5,0,0,0,.5.5h3a.51.51,0,0,0,.5-.5A.5.5,0,0,0,5.48,16Z"/><path class="cls-6" d="M5.48,19h-3a.5.5,0,0,0-.5.5.5.5,0,0,0,.5.5h3a.51.51,0,0,0,.5-.5A.5.5,0,0,0,5.48,19Z"/></g></g></g></svg>