<svg id="artwork" xmlns="http://www.w3.org/2000/svg" xmlns:xlink="http://www.w3.org/1999/xlink" width="24" height="24" viewBox="0 0 24 24"><defs><style>.cls-1{fill:url(#linear-gradient);}.cls-2{fill:url(#linear-gradient-2);}</style><linearGradient id="linear-gradient" x1="196.24" y1="-425.87" x2="215.64" y2="-442.56" gradientTransform="matrix(0.56, 0, 0, -0.57, -108.7, -239.27)" gradientUnits="userSpaceOnUse"><stop offset="0" stop-color="#5a9fd4"/><stop offset="1" stop-color="#306998"/></linearGradient><linearGradient id="linear-gradient-2" x1="223.14" y1="-452.66" x2="216.21" y2="-442.86" gradientTransform="matrix(0.56, 0, 0, -0.57, -108.7, -239.27)" gradientUnits="userSpaceOnUse"><stop offset="0" stop-color="#ffd43b"/><stop offset="1" stop-color="#ffe873"/></linearGradient></defs><title>icon-python</title><path id="path1948" class="cls-1" d="M12,2.05a13.3,13.3,0,0,0-2.28.19c-2,.36-2.39,1.11-2.39,2.48V6.54h4.77v.61H5.49a3,3,0,0,0-3,2.42,8.84,8.84,0,0,0,0,4.84c.34,1.42,1.15,2.42,2.54,2.42H6.69V14.65a3,3,0,0,1,3-3h4.76a2.4,2.4,0,0,0,2.39-2.42V4.72a2.67,2.67,0,0,0-2.39-2.48A14.8,14.8,0,0,0,12,2.05ZM9.37,3.51a.91.91,0,1,1-.9.91A.9.9,0,0,1,9.37,3.51Z"/><path id="path1950" class="cls-2" d="M17.42,7.15V9.27a3.06,3.06,0,0,1-3,3H9.67a2.44,2.44,0,0,0-2.39,2.43v4.54c0,1.29,1.13,2,2.39,2.42a7.88,7.88,0,0,0,4.76,0c1.21-.34,2.39-1,2.39-2.42V17.44H12.05v-.61h7.16c1.38,0,1.9-1,2.38-2.42a8.12,8.12,0,0,0,0-4.84c-.34-1.38-1-2.42-2.38-2.42Zm-2.69,11.5a.91.91,0,1,1-.89.91A.9.9,0,0,1,14.73,18.65Z"/></svg>