<svg id="export" xmlns="http://www.w3.org/2000/svg" xmlns:xlink="http://www.w3.org/1999/xlink" width="24" height="24" viewBox="0 0 24 24"><defs><style>.cls-1{fill:#17bb62;}.cls-2{fill:url(#icon_gradient);}.cls-3{fill:url(#icon_gradient-2);}</style><linearGradient id="icon_gradient" x1="5" y1="7" x2="9" y2="7" gradientUnits="userSpaceOnUse"><stop offset="0.02" stop-color="#fff" stop-opacity="0.2"/><stop offset="0.32" stop-color="#f2f3f4" stop-opacity="0.19"/><stop offset="0.58" stop-color="#cacdd1" stop-opacity="0.15"/><stop offset="0.81" stop-color="#878d96" stop-opacity="0.08"/><stop offset="1" stop-color="#3b4554" stop-opacity="0.01"/></linearGradient><linearGradient id="icon_gradient-2" x1="4" y1="14.87" x2="20" y2="14.87" xlink:href="#icon_gradient"/></defs><title>icon-image</title><g id="_image_" data-name="&lt;image&gt;"><g id="_artwork_" data-name="&lt;artwork&gt;"><circle class="cls-1" cx="7" cy="7" r="2"/><path class="cls-1" d="M19.92,18.17,15.42,11a.54.54,0,0,0-.84-.09l-4.35,4.35L9,14a.53.53,0,0,0-.75,0L4.16,18.09a.53.53,0,0,0,.38.91H19.46A.55.55,0,0,0,19.92,18.17Z"/></g><g id="_gradient_" data-name="&lt;gradient&gt;"><circle class="cls-2" cx="7" cy="7" r="2"/><path class="cls-3" d="M14.59,10.89l-4.34,4.34h0L9,14a.53.53,0,0,0-.74,0l-4.1,4.1a.52.52,0,0,0,.37.89h15a.52.52,0,0,0,.44-.8L15.4,11A.52.52,0,0,0,14.59,10.89Z"/></g></g></svg>