<svg xmlns="http://www.w3.org/2000/svg" xmlns:xlink="http://www.w3.org/1999/xlink" width="24" height="24" viewBox="0 0 24 24"><defs><style>.cls-1{fill:#ee3f24;}.cls-2{fill:url(#icon_gradient);}</style><linearGradient id="icon_gradient" x1="4.68" y1="5.44" x2="13.79" y2="21.23" gradientUnits="userSpaceOnUse"><stop offset="0.02" stop-color="#fff" stop-opacity="0.2"/><stop offset="0.32" stop-color="#f2f3f4" stop-opacity="0.19"/><stop offset="0.58" stop-color="#cacdd1" stop-opacity="0.15"/><stop offset="0.81" stop-color="#878d96" stop-opacity="0.08"/><stop offset="1" stop-color="#3b4554" stop-opacity="0.01"/></linearGradient></defs><title>icon-acrobat</title><g id="artwork"><path class="cls-1" d="M21.66,14.82c-.59-.64-1.8-1-3.52-1a16.86,16.86,0,0,0-3.13.31,17.87,17.87,0,0,1-1.92-2.27A20.31,20.31,0,0,1,11.9,9.94a17.77,17.77,0,0,0,1-5.09C12.91,3.46,12.41,2,11,2a1.37,1.37,0,0,0-1.13.67C9.18,3.84,9.48,6.42,10.6,9c-.42,1.27-.86,2.48-1.42,3.85-.48,1.14-1,2.33-1.6,3.42C4.33,17.55,2.22,19.09,2,20.3a1.36,1.36,0,0,0,.39,1.21A1.87,1.87,0,0,0,3.64,22c2.16,0,4.43-3.58,5.59-5.73.88-.3,1.77-.57,2.66-.85a28.71,28.71,0,0,1,2.83-.63A8,8,0,0,0,20,17.18c1.25,0,1.69-.52,1.84-.94a1.45,1.45,0,0,0-.21-1.45l0,0Zm-1.15.88a1.06,1.06,0,0,1-1.16.75,3,3,0,0,1-.5-.06,7.73,7.73,0,0,1-3.25-1.76,15.45,15.45,0,0,1,2.48-.2,6.28,6.28,0,0,1,1.51.12,1,1,0,0,1,.91,1.15h0Zm-6.27-1.43c-.77.16-1.59.35-2.45.58-.68.19-1.39.4-2.1.64.38-.75.71-1.48,1-2.17.36-.85.65-1.73,1-2.54.29.51.62,1,.94,1.48a21.51,21.51,0,0,0,1.65,2h0ZM10.37,3a.63.63,0,0,1,.56-.36c.62,0,.74.72.74,1.3a16.44,16.44,0,0,1-.8,4.15C10,5.74,9.92,3.77,10.37,3ZM7.11,17.12c-1.5,2.54-2.95,4.12-3.84,4.12a.74.74,0,0,1-.44-.16.64.64,0,0,1-.21-.63c.18-.91,1.87-2.18,4.49-3.33Z"/></g><g id="gradient"><path class="cls-2" d="M21.66,14.82c-.59-.64-1.8-1-3.52-1a16.86,16.86,0,0,0-3.13.31,17.87,17.87,0,0,1-1.92-2.27A20.31,20.31,0,0,1,11.9,9.94a17.77,17.77,0,0,0,1-5.09C12.91,3.46,12.41,2,11,2a1.37,1.37,0,0,0-1.13.67C9.18,3.84,9.48,6.42,10.6,9c-.42,1.27-.86,2.48-1.42,3.85-.48,1.14-1,2.33-1.6,3.42C4.33,17.55,2.22,19.09,2,20.3a1.36,1.36,0,0,0,.39,1.21A1.87,1.87,0,0,0,3.64,22c2.16,0,4.43-3.58,5.59-5.73.88-.3,1.77-.57,2.66-.85a28.71,28.71,0,0,1,2.83-.63A8,8,0,0,0,20,17.18c1.25,0,1.69-.52,1.84-.94a1.45,1.45,0,0,0-.21-1.45l0,0Zm-1.15.88a1.06,1.06,0,0,1-1.16.75,3,3,0,0,1-.5-.06,7.73,7.73,0,0,1-3.25-1.76,15.45,15.45,0,0,1,2.48-.2,6.28,6.28,0,0,1,1.51.12,1,1,0,0,1,.91,1.15h0Zm-6.27-1.43c-.77.16-1.59.35-2.45.58-.68.19-1.39.4-2.1.64.38-.75.71-1.48,1-2.17.36-.85.65-1.73,1-2.54.29.51.62,1,.94,1.48a21.51,21.51,0,0,0,1.65,2h0ZM10.37,3a.63.63,0,0,1,.56-.36c.62,0,.74.72.74,1.3a16.44,16.44,0,0,1-.8,4.15C10,5.74,9.92,3.77,10.37,3ZM7.11,17.12c-1.5,2.54-2.95,4.12-3.84,4.12a.74.74,0,0,1-.44-.16.64.64,0,0,1-.21-.63c.18-.91,1.87-2.18,4.49-3.33Z"/></g><g id="export"><g id="_acrobat_" data-name="&lt;acrobat&gt;"><path id="_artwork_" data-name="&lt;artwork&gt;" class="cls-1" d="M21.66,14.82c-.59-.64-1.8-1-3.52-1a16.86,16.86,0,0,0-3.13.31,17.87,17.87,0,0,1-1.92-2.27A20.31,20.31,0,0,1,11.9,9.94a17.77,17.77,0,0,0,1-5.09C12.91,3.46,12.41,2,11,2a1.37,1.37,0,0,0-1.13.67C9.18,3.84,9.48,6.42,10.6,9c-.42,1.27-.86,2.48-1.42,3.85-.48,1.14-1,2.33-1.6,3.42C4.33,17.55,2.22,19.09,2,20.3a1.36,1.36,0,0,0,.39,1.21A1.87,1.87,0,0,0,3.64,22c2.16,0,4.43-3.58,5.59-5.73.88-.3,1.77-.57,2.66-.85a28.71,28.71,0,0,1,2.83-.63A8,8,0,0,0,20,17.18c1.25,0,1.69-.52,1.84-.94a1.45,1.45,0,0,0-.21-1.45l0,0Zm-1.15.88a1.06,1.06,0,0,1-1.16.75,3,3,0,0,1-.5-.06,7.73,7.73,0,0,1-3.25-1.76,15.45,15.45,0,0,1,2.48-.2,6.28,6.28,0,0,1,1.51.12,1,1,0,0,1,.91,1.15h0Zm-6.27-1.43c-.77.16-1.59.35-2.45.58-.68.19-1.39.4-2.1.64.38-.75.71-1.48,1-2.17.36-.85.65-1.73,1-2.54.29.51.62,1,.94,1.48a21.51,21.51,0,0,0,1.65,2h0ZM10.37,3a.63.63,0,0,1,.56-.36c.62,0,.74.72.74,1.3a16.44,16.44,0,0,1-.8,4.15C10,5.74,9.92,3.77,10.37,3ZM7.11,17.12c-1.5,2.54-2.95,4.12-3.84,4.12a.74.74,0,0,1-.44-.16.64.64,0,0,1-.21-.63c.18-.91,1.87-2.18,4.49-3.33Z"/><path id="_gradient_" data-name="&lt;gradient&gt;" class="cls-2" d="M21.66,14.82c-.59-.64-1.8-1-3.52-1a16.86,16.86,0,0,0-3.13.31,17.87,17.87,0,0,1-1.92-2.27A20.31,20.31,0,0,1,11.9,9.94a17.77,17.77,0,0,0,1-5.09C12.91,3.46,12.41,2,11,2a1.37,1.37,0,0,0-1.13.67C9.18,3.84,9.48,6.42,10.6,9c-.42,1.27-.86,2.48-1.42,3.85-.48,1.14-1,2.33-1.6,3.42C4.33,17.55,2.22,19.09,2,20.3a1.36,1.36,0,0,0,.39,1.21A1.87,1.87,0,0,0,3.64,22c2.16,0,4.43-3.58,5.59-5.73.88-.3,1.77-.57,2.66-.85a28.71,28.71,0,0,1,2.83-.63A8,8,0,0,0,20,17.18c1.25,0,1.69-.52,1.84-.94a1.45,1.45,0,0,0-.21-1.45l0,0Zm-1.15.88a1.06,1.06,0,0,1-1.16.75,3,3,0,0,1-.5-.06,7.73,7.73,0,0,1-3.25-1.76,15.45,15.45,0,0,1,2.48-.2,6.28,6.28,0,0,1,1.51.12,1,1,0,0,1,.91,1.15h0Zm-6.27-1.43c-.77.16-1.59.35-2.45.58-.68.19-1.39.4-2.1.64.38-.75.71-1.48,1-2.17.36-.85.65-1.73,1-2.54.29.51.62,1,.94,1.48a21.51,21.51,0,0,0,1.65,2h0ZM10.37,3a.63.63,0,0,1,.56-.36c.62,0,.74.72.74,1.3a16.44,16.44,0,0,1-.8,4.15C10,5.74,9.92,3.77,10.37,3ZM7.11,17.12c-1.5,2.54-2.95,4.12-3.84,4.12a.74.74,0,0,1-.44-.16.64.64,0,0,1-.21-.63c.18-.91,1.87-2.18,4.49-3.33Z"/></g></g></svg>