<svg id="export" width="24" height="24" xmlns="http://www.w3.org/2000/svg" xmlns:xlink="http://www.w3.org/1999/xlink" viewBox="0 0 24 24"><defs><style>.cls-1{fill:none;}.cls-2{fill:#ff7300;}.cls-3{fill:url(#icon_gradient);}</style><linearGradient id="icon_gradient" x1="2.02" y1="12" x2="22.02" y2="12" gradientUnits="userSpaceOnUse"><stop offset="0.02" stop-color="#fff" stop-opacity="0.2"/><stop offset="0.32" stop-color="#f2f3f4" stop-opacity="0.19"/><stop offset="0.58" stop-color="#cacdd1" stop-opacity="0.15"/><stop offset="0.81" stop-color="#878d96" stop-opacity="0.08"/><stop offset="1" stop-color="#3b4554" stop-opacity="0.01"/></linearGradient></defs><title>icon-vector</title><g id="_vector_" data-name="&lt;vector&gt;"><g id="_artwork_" data-name="&lt;artwork&gt;"><rect class="cls-1" x="3.02" y="19" width="2" height="2"/><polygon class="cls-1" points="19.02 5 19.52 5 20.52 5 21.02 5 21.02 3 19.02 3 19.02 5"/><path class="cls-2" d="M22,2H18V6h1.42c-.35,2.71-2.14,5.23-4.94,5.49v-2h-5v2a6.58,6.58,0,0,0-6,6.46H2v4H6V18H4.54a5.53,5.53,0,0,1,5-5.46v2h5v-2c3.42-.26,5.57-3.28,5.95-6.49H22ZM5,21H3V19H5ZM21,5H19V3h2Z"/></g><path id="_gradient_" data-name="&lt;gradient&gt;" class="cls-3" d="M22,2H18V6h1.42c-.35,2.71-2.14,5.23-4.94,5.49v-2h-5v2a6.58,6.58,0,0,0-6,6.46H2v4H6V18H4.54a5.53,5.53,0,0,1,5-5.46v2h5v-2c3.42-.26,5.57-3.28,5.95-6.49H22ZM5,21H3V19H5ZM21,5H19V3h2Z"/></g></svg>