<svg id="export" xmlns="http://www.w3.org/2000/svg" xmlns:xlink="http://www.w3.org/1999/xlink" width="24" height="24" viewBox="0 0 24 24"><defs><style>.cls-1{fill:#cf482f;}.cls-2{fill:url(#icon_gradient);}.cls-3{fill:url(#icon_gradient-2);}</style><linearGradient id="icon_gradient" x1="2.02" y1="13.24" x2="19.52" y2="13.24" gradientUnits="userSpaceOnUse"><stop offset="0.02" stop-color="#fff" stop-opacity="0.2"/><stop offset="0.32" stop-color="#f2f3f4" stop-opacity="0.19"/><stop offset="0.58" stop-color="#cacdd1" stop-opacity="0.15"/><stop offset="0.81" stop-color="#878d96" stop-opacity="0.08"/><stop offset="1" stop-color="#3b4554" stop-opacity="0.01"/></linearGradient><linearGradient id="icon_gradient-2" x1="13.01" y1="6.55" x2="21.9" y2="6.55" xlink:href="#icon_gradient"/></defs><title>icon-powerpoint</title><g id="_powerpoint_" data-name="&lt;powerpoint&gt;"><g id="_artwork_" data-name="&lt;artwork&gt;"><path class="cls-1" d="M11,4.49c-4.68.17-9,4-9,8.73a8.75,8.75,0,1,0,17.5,0V13H11Z"/><path class="cls-1" d="M13,2.1A9,9,0,0,1,21.9,11H13Z"/></g><g id="_gradient_" data-name="&lt;gradient&gt;"><path class="cls-2" d="M11,13V4.49c-4.68.17-9,4-9,8.73a8.75,8.75,0,1,0,17.5,0V13Z"/><path class="cls-3" d="M13,2.1V11H21.9A9,9,0,0,0,13,2.1Z"/></g></g></svg>