<svg id="export" xmlns="http://www.w3.org/2000/svg" xmlns:xlink="http://www.w3.org/1999/xlink" width="24" height="24" viewBox="0 0 24 24"><defs><style>.cls-1{fill:none;}.cls-2{fill:#066da5;}.cls-3{fill:url(#icon_gradient);}.cls-4{fill:url(#icon_gradient-2);}.cls-5{fill:url(#icon_gradient-3);}.cls-6{fill:url(#icon_gradient-4);}.cls-7{fill:url(#icon_gradient-5);}.cls-8{fill:url(#icon_gradient-6);}.cls-9{fill:url(#icon_gradient-7);}.cls-10{fill:url(#icon_gradient-8);}.cls-11{fill:url(#icon_gradient-9);}</style><linearGradient id="icon_gradient" x1="5" y1="8" x2="7" y2="8" gradientUnits="userSpaceOnUse"><stop offset="0.02" stop-color="#fff" stop-opacity="0.2"/><stop offset="0.32" stop-color="#f2f3f4" stop-opacity="0.19"/><stop offset="0.58" stop-color="#cacdd1" stop-opacity="0.15"/><stop offset="0.81" stop-color="#878d96" stop-opacity="0.08"/><stop offset="1" stop-color="#3b4554" stop-opacity="0.01"/></linearGradient><linearGradient id="icon_gradient-2" x1="3" y1="11" x2="5" y2="11" xlink:href="#icon_gradient"/><linearGradient id="icon_gradient-3" x1="6" y1="11" x2="8" y2="11" xlink:href="#icon_gradient"/><linearGradient id="icon_gradient-4" x1="9" y1="11" x2="11" y2="11" xlink:href="#icon_gradient"/><linearGradient id="icon_gradient-5" x1="12" y1="11" x2="14" y2="11" xlink:href="#icon_gradient"/><linearGradient id="icon_gradient-6" x1="8" y1="8" x2="10" y2="8" xlink:href="#icon_gradient"/><linearGradient id="icon_gradient-7" x1="11" y1="8" x2="13" y2="8" xlink:href="#icon_gradient"/><linearGradient id="icon_gradient-8" x1="11" y1="5" x2="13" y2="5" xlink:href="#icon_gradient"/><linearGradient id="icon_gradient-9" x1="2" y1="14.32" x2="22" y2="14.32" xlink:href="#icon_gradient"/></defs><title>icon-docker</title><g id="_docker_" data-name="&lt;docker&gt;"><g id="_artwork_" data-name="&lt;artwork&gt;"><path class="cls-1" d="M6,14.79a1,1,0,0,0-1.09,1,1.08,1.08,0,0,0,2.16,0A1,1,0,0,0,6,14.79Z"/><rect class="cls-2" x="5" y="7" width="2" height="2"/><rect class="cls-2" x="3" y="10" width="2" height="2"/><rect class="cls-2" x="6" y="10" width="2" height="2"/><rect class="cls-2" x="9" y="10" width="2" height="2"/><rect class="cls-2" x="12" y="10" width="2" height="2"/><rect class="cls-2" x="8" y="7" width="2" height="2"/><rect class="cls-2" x="11" y="7" width="2" height="2"/><rect class="cls-2" x="11" y="4" width="2" height="2"/><path class="cls-2" d="M19.35,11.21A3.31,3.31,0,0,0,17.8,9a2.81,2.81,0,0,0-.28,3.45,3.59,3.59,0,0,1-1.79.51c-.84,0-1.68,0-2.52,0H2.06a2.7,2.7,0,0,0-.06.36c0,.43,0,.86,0,1.29a5,5,0,0,0,.71,2.12,4.88,4.88,0,0,0,.95,1.17,6.74,6.74,0,0,0,4.24,1.72A13,13,0,0,0,10,19.58a11.66,11.66,0,0,0,2.41-.46,9.64,9.64,0,0,0,5.16-3.53,9.91,9.91,0,0,0,1.27-2.21c0-.05,0-.1.12-.1a6.78,6.78,0,0,0,.78,0,2.67,2.67,0,0,0,1.72-.82,9.13,9.13,0,0,0,.54-.79A3.17,3.17,0,0,0,19.35,11.21ZM6,16.85a1.07,1.07,0,0,1-1.09-1.06,1,1,0,0,1,1.09-1,1,1,0,0,1,1.07,1A1.07,1.07,0,0,1,6,16.85Z"/></g><g id="_gradient_" data-name="&lt;gradient&gt;"><rect class="cls-3" x="5" y="7" width="2" height="2"/><rect class="cls-4" x="3" y="10" width="2" height="2"/><rect class="cls-5" x="6" y="10" width="2" height="2"/><rect class="cls-6" x="9" y="10" width="2" height="2"/><rect class="cls-7" x="12" y="10" width="2" height="2"/><rect class="cls-8" x="8" y="7" width="2" height="2"/><rect class="cls-9" x="11" y="7" width="2" height="2"/><rect class="cls-10" x="11" y="4" width="2" height="2"/><path class="cls-11" d="M19.35,11.21A3.31,3.31,0,0,0,17.8,9a2.81,2.81,0,0,0-.28,3.45,3.59,3.59,0,0,1-1.79.51c-.84,0-1.68,0-2.52,0H2.06a2.7,2.7,0,0,0-.06.36c0,.43,0,.86,0,1.29a5,5,0,0,0,.71,2.12,4.88,4.88,0,0,0,.95,1.17,6.74,6.74,0,0,0,4.24,1.72A13,13,0,0,0,10,19.58a11.66,11.66,0,0,0,2.41-.46,9.64,9.64,0,0,0,5.16-3.53,9.91,9.91,0,0,0,1.27-2.21c0-.05,0-.1.12-.1a6.78,6.78,0,0,0,.78,0,2.67,2.67,0,0,0,1.72-.82,9.13,9.13,0,0,0,.54-.79A3.17,3.17,0,0,0,19.35,11.21ZM6,16.85a1.07,1.07,0,0,1-1.09-1.06,1,1,0,0,1,1.09-1,1,1,0,0,1,1.07,1A1.07,1.07,0,0,1,6,16.85Z"/></g></g></svg>