<svg id="export" xmlns="http://www.w3.org/2000/svg" xmlns:xlink="http://www.w3.org/1999/xlink" width="24" height="24" viewBox="0 0 24 24"><defs><style>.cls-1{fill:#404554;}.cls-2{fill:url(#icon_gradient);}</style><linearGradient id="icon_gradient" x1="2.24" y1="12" x2="21.74" y2="12" gradientUnits="userSpaceOnUse"><stop offset="0.02" stop-color="#fff" stop-opacity="0.2"/><stop offset="0.32" stop-color="#f2f3f4" stop-opacity="0.19"/><stop offset="0.58" stop-color="#cacdd1" stop-opacity="0.15"/><stop offset="0.81" stop-color="#878d96" stop-opacity="0.08"/><stop offset="1" stop-color="#3b4554" stop-opacity="0.01"/></linearGradient></defs><title>icon-clinical</title><g id="_clinical_" data-name="&lt;clinical&gt;"><path class="cls-1" d="M21.73,12.07C21.88,14.55,20.4,15,20.4,15a1.68,1.68,0,0,1-.3,1.52,1.86,1.86,0,0,1-2.26.62s-.15,2.16-1.66,2.47a2.06,2.06,0,0,1-2.09-1.08l-.45,2h-.91a24.07,24.07,0,0,0-1.35-3.68,4.07,4.07,0,0,0-1.49-.62,3.72,3.72,0,0,1-2-.93,1.27,1.27,0,0,1,0-1.67,23.48,23.48,0,0,1-3-.31c-2.11-.46-1.51-1.85-1.51-1.85s-.45.15-.9-.47a2.7,2.7,0,0,1,0-2.44A4.75,4.75,0,0,1,3.89,7.16s-.3-.31.45-.93a1.8,1.8,0,0,1,1-.31,1.88,1.88,0,0,1,1-1.06,2.47,2.47,0,0,1,1.81-.15,2.13,2.13,0,0,1,1-.93,2,2,0,0,1,1.63.16,2.88,2.88,0,0,1,1.66-.47,1.43,1.43,0,0,1,1.36.62,1.72,1.72,0,0,1,1.36,0,1.49,1.49,0,0,1,.88.93,1.64,1.64,0,0,1,1.2-.16,2,2,0,0,1,1.06,1.06,2.58,2.58,0,0,1,1.06.31,1.57,1.57,0,0,1,.3.93,1.41,1.41,0,0,1,.88.92,1.32,1.32,0,0,1-.15,1.24A3.71,3.71,0,0,1,21.73,12.07Z"/><path class="cls-2" d="M21.73,12.07C21.88,14.55,20.4,15,20.4,15a1.68,1.68,0,0,1-.3,1.52,1.86,1.86,0,0,1-2.26.62s-.15,2.16-1.66,2.47a2.06,2.06,0,0,1-2.09-1.08l-.45,2h-.91a24.07,24.07,0,0,0-1.35-3.68,4.07,4.07,0,0,0-1.49-.62,3.72,3.72,0,0,1-2-.93,1.27,1.27,0,0,1,0-1.67,23.48,23.48,0,0,1-3-.31c-2.11-.46-1.51-1.85-1.51-1.85s-.45.15-.9-.47a2.7,2.7,0,0,1,0-2.44A4.75,4.75,0,0,1,3.89,7.16s-.3-.31.45-.93a1.8,1.8,0,0,1,1-.31,1.88,1.88,0,0,1,1-1.06,2.47,2.47,0,0,1,1.81-.15,2.13,2.13,0,0,1,1-.93,2,2,0,0,1,1.63.16,2.88,2.88,0,0,1,1.66-.47,1.43,1.43,0,0,1,1.36.62,1.72,1.72,0,0,1,1.36,0,1.49,1.49,0,0,1,.88.93,1.64,1.64,0,0,1,1.2-.16,2,2,0,0,1,1.06,1.06,2.58,2.58,0,0,1,1.06.31,1.57,1.57,0,0,1,.3.93,1.41,1.41,0,0,1,.88.92,1.32,1.32,0,0,1-.15,1.24A3.71,3.71,0,0,1,21.73,12.07Z"/></g></svg>