<svg id="export" xmlns="http://www.w3.org/2000/svg" xmlns:xlink="http://www.w3.org/1999/xlink" width="24" height="24" viewBox="0 0 24 24"><defs><style>.cls-1{fill:#9ab5ff;}.cls-2{opacity:0.31;fill:url(#linear-gradient);}.cls-3{fill:url(#icon_gradient);}</style><linearGradient id="linear-gradient" x1="284.52" y1="-312.01" x2="284.52" y2="-317.73" gradientTransform="translate(-279 320.74)" gradientUnits="userSpaceOnUse"><stop offset="0.02" stop-color="#fff" stop-opacity="0.6"/><stop offset="0.52" stop-color="#3b4554" stop-opacity="0.6"/></linearGradient><linearGradient id="icon_gradient" x1="2.01" y1="13.5" x2="22.01" y2="13.5" gradientUnits="userSpaceOnUse"><stop offset="0.02" stop-color="#fff" stop-opacity="0.2"/><stop offset="0.32" stop-color="#f2f3f4" stop-opacity="0.19"/><stop offset="0.58" stop-color="#cacdd1" stop-opacity="0.15"/><stop offset="0.81" stop-color="#878d96" stop-opacity="0.08"/><stop offset="1" stop-color="#3b4554" stop-opacity="0.01"/></linearGradient></defs><title>icon-folder</title><g id="_folder_" data-name="&lt;folder&gt;"><g id="_tab_" data-name="&lt;tab&gt;"><rect class="cls-1" x="2.02" y="3.01" width="7" height="3.64"/><path class="cls-2" d="M2.09,3H8.94A.08.08,0,0,1,9,3.08V8.73a0,0,0,0,1,0,0H2a0,0,0,0,1,0,0V3.08A.08.08,0,0,1,2.09,3Z" transform="translate(11.03 11.74) rotate(180)"/></g><g id="_body_" data-name="&lt;body&gt;"><path class="cls-1" d="M2,6H22a0,0,0,0,1,0,0V21a0,0,0,0,1,0,0H2a0,0,0,0,1,0,0V6A0,0,0,0,1,2,6Z"/><path class="cls-3" d="M2,6H22a0,0,0,0,1,0,0V21a0,0,0,0,1,0,0H2.07A.06.06,0,0,1,2,20.94V6A0,0,0,0,1,2,6Z"/></g></g></svg>