<svg xmlns="http://www.w3.org/2000/svg" xmlns:xlink="http://www.w3.org/1999/xlink" viewBox="0 0 24 24"><defs><style>.cls-1{fill:#f1f1f3;}.cls-2{fill:#2760ff;}.cls-3{fill:url(#icon_gradient);}.cls-4{fill:url(#icon_gradient-2);}.cls-5{fill:url(#icon_gradient-3);}.cls-6{fill:url(#icon_gradient-4);}</style><linearGradient id="icon_gradient" x1="16" y1="5" x2="22" y2="5" gradientUnits="userSpaceOnUse"><stop offset="0.02" stop-color="#fff" stop-opacity="0.2"/><stop offset="0.32" stop-color="#f2f3f4" stop-opacity="0.19"/><stop offset="0.58" stop-color="#cacdd1" stop-opacity="0.15"/><stop offset="0.81" stop-color="#878d96" stop-opacity="0.08"/><stop offset="1" stop-color="#3b4554" stop-opacity="0.01"/></linearGradient><linearGradient id="icon_gradient-2" x1="10.96" y1="13.47" x2="17.44" y2="13.47" xlink:href="#icon_gradient"/><linearGradient id="icon_gradient-3" x1="6.55" y1="10.53" x2="13.03" y2="10.53" xlink:href="#icon_gradient"/><linearGradient id="icon_gradient-4" x1="9.48" y1="11.99" x2="14.5" y2="11.99" xlink:href="#icon_gradient"/></defs><title>icon-linked-file</title><g id="artwork"><polygon class="cls-1" points="22 22 2 22 2 2 16 2 22 7.97 22 22"/><path class="cls-2" d="M16,2V6.5A1.5,1.5,0,0,0,17.5,8H22Z"/><path class="cls-2" d="M16.2,11.35l-1.46-1.07a.62.62,0,0,0-.85.14.61.61,0,0,0,.14.84l1.46,1.06a1.79,1.79,0,1,1-2.11,2.9l-1.46-1.06a.61.61,0,0,0-.71,1l1.46,1.06a3,3,0,1,0,3.53-4.85Z"/><path class="cls-2" d="M10,12.74,8.5,11.68a1.79,1.79,0,1,1,2.11-2.9l1.47,1.06a.6.6,0,0,0,.84-.13.61.61,0,0,0-.14-.84L11.32,7.8A3,3,0,1,0,7.8,12.66l1.46,1.06a.6.6,0,0,0,.84-.13A.61.61,0,0,0,10,12.74Z"/><path class="cls-2" d="M9.59,10.25a.61.61,0,0,0,.14.84l3.81,2.77a.59.59,0,0,0,.84-.13.61.61,0,0,0-.13-.85l-3.82-2.77A.61.61,0,0,0,9.59,10.25Z"/></g><g id="gradient"><path class="cls-3" d="M16,2V6.5A1.5,1.5,0,0,0,17.5,8H22Z"/><path class="cls-4" d="M16.2,11.35l-1.46-1.07a.62.62,0,0,0-.85.14.61.61,0,0,0,.14.84l1.46,1.06a1.79,1.79,0,1,1-2.11,2.9l-1.46-1.06a.61.61,0,0,0-.71,1l1.46,1.06a3,3,0,1,0,3.53-4.85Z"/><path class="cls-5" d="M10,12.74,8.5,11.68a1.79,1.79,0,1,1,2.11-2.9l1.47,1.06a.6.6,0,0,0,.84-.13.61.61,0,0,0-.14-.84L11.32,7.8A3,3,0,1,0,7.8,12.66l1.46,1.06a.6.6,0,0,0,.84-.13A.61.61,0,0,0,10,12.74Z"/><path class="cls-6" d="M9.59,10.25a.61.61,0,0,0,.14.84l3.81,2.77a.59.59,0,0,0,.84-.13.61.61,0,0,0-.13-.85l-3.82-2.77A.61.61,0,0,0,9.59,10.25Z"/></g></svg>