<svg xmlns="http://www.w3.org/2000/svg" xmlns:xlink="http://www.w3.org/1999/xlink" width="24" height="24" viewBox="0 0 24 24"><defs><style>.cls-1{fill:url(#icon_gradient);}.cls-2{fill:none;}.cls-3{fill:#17bb62;}</style><linearGradient id="icon_gradient" x1="6.46" y1="12" x2="17.54" y2="12" gradientUnits="userSpaceOnUse"><stop offset="0.02" stop-color="#fff" stop-opacity="0.2"/><stop offset="0.32" stop-color="#f2f3f4" stop-opacity="0.19"/><stop offset="0.58" stop-color="#cacdd1" stop-opacity="0.15"/><stop offset="0.81" stop-color="#878d96" stop-opacity="0.08"/><stop offset="1" stop-color="#3b4554" stop-opacity="0.01"/></linearGradient></defs><title>icon-genomics</title><g id="gradient"><path class="cls-1" d="M17.54,4.23V2.5A.5.5,0,0,0,17,2a.5.5,0,0,0-.5.5V4H7.46V2.5A.5.5,0,0,0,7,2a.5.5,0,0,0-.5.5V4.23A6.88,6.88,0,0,0,9.94,10.5a7,7,0,0,0-3.48,6.3v4.7A.5.5,0,0,0,7,22a.5.5,0,0,0,.5-.5V20h9.08v1.5a.5.5,0,0,0,.5.5.5.5,0,0,0,.5-.5V16.8a7,7,0,0,0-3.48-6.3A6.88,6.88,0,0,0,17.54,4.23ZM8,7a6.66,6.66,0,0,1-.52-2h9A6.76,6.76,0,0,1,16,7H8Zm8.46,9h-9A6.77,6.77,0,0,1,8,14H16A6.77,6.77,0,0,1,16.49,16Zm-9,3V17h9.08v2Zm7.94-6H8.6A4.26,4.26,0,0,1,12,11,4.27,4.27,0,0,1,15.4,13ZM12,10h0A4.19,4.19,0,0,1,8.57,8h6.86A4.19,4.19,0,0,1,12,10Z"/></g><g id="export"><g id="_artwork_" data-name="&lt;artwork&gt;"><path class="cls-2" d="M16.49,5h-9A6.66,6.66,0,0,0,8,7V7h8A6.76,6.76,0,0,0,16.49,5Z"/><rect class="cls-2" x="7.46" y="17" width="9.08" height="2"/><path class="cls-2" d="M7.51,16h9A6.77,6.77,0,0,0,16,14H8A6.77,6.77,0,0,0,7.51,16Z"/><path class="cls-2" d="M8.57,8A4.19,4.19,0,0,0,12,10h0a4.19,4.19,0,0,0,3.41-2Z"/><path class="cls-2" d="M8.6,13h6.8A4.27,4.27,0,0,0,12,11,4.26,4.26,0,0,0,8.6,13Z"/><path class="cls-3" d="M17.54,4.23V2.5A.5.5,0,0,0,17,2a.5.5,0,0,0-.5.5V4H7.46V2.5A.5.5,0,0,0,7,2a.5.5,0,0,0-.5.5V4.23A6.88,6.88,0,0,0,9.94,10.5a7,7,0,0,0-3.48,6.3v4.7A.5.5,0,0,0,7,22a.5.5,0,0,0,.5-.5V20h9.08v1.5a.5.5,0,0,0,.5.5.5.5,0,0,0,.5-.5V16.8a7,7,0,0,0-3.48-6.3A6.88,6.88,0,0,0,17.54,4.23ZM8,7a6.66,6.66,0,0,1-.52-2h9A6.76,6.76,0,0,1,16,7H8Zm8.46,9h-9A6.77,6.77,0,0,1,8,14H16A6.77,6.77,0,0,1,16.49,16Zm-9,3V17h9.08v2Zm7.94-6H8.6A4.26,4.26,0,0,1,12,11,4.27,4.27,0,0,1,15.4,13ZM12,10h0A4.19,4.19,0,0,1,8.57,8h6.86A4.19,4.19,0,0,1,12,10Z"/></g><path id="_gradient_" data-name="&lt;gradient&gt;" class="cls-1" d="M17.54,4.23V2.5A.5.5,0,0,0,17,2a.5.5,0,0,0-.5.5V4H7.46V2.5A.5.5,0,0,0,7,2a.5.5,0,0,0-.5.5V4.23A6.88,6.88,0,0,0,9.94,10.5a7,7,0,0,0-3.48,6.3v4.7A.5.5,0,0,0,7,22a.5.5,0,0,0,.5-.5V20h9.08v1.5a.5.5,0,0,0,.5.5.5.5,0,0,0,.5-.5V16.8a7,7,0,0,0-3.48-6.3A6.88,6.88,0,0,0,17.54,4.23ZM8,7a6.66,6.66,0,0,1-.52-2h9A6.76,6.76,0,0,1,16,7H8Zm8.46,9h-9A6.77,6.77,0,0,1,8,14H16A6.77,6.77,0,0,1,16.49,16Zm-9,3V17h9.08v2Zm7.94-6H8.6A4.26,4.26,0,0,1,12,11,4.27,4.27,0,0,1,15.4,13ZM12,10h0A4.19,4.19,0,0,1,8.57,8h6.86A4.19,4.19,0,0,1,12,10Z"/></g></svg>