<svg xmlns="http://www.w3.org/2000/svg" xmlns:xlink="http://www.w3.org/1999/xlink" width="24" height="24" viewBox="0 0 24 24"><defs><style>.cls-1{fill:url(#icon_gradient);}.cls-2{fill:none;}.cls-3{fill:#dadada;}.cls-4{fill:#17bb62;}.cls-5{fill:#e94b4b;}.cls-6{fill:#2760ff;}</style><linearGradient id="icon_gradient" x1="5" y1="12" x2="19" y2="12" gradientUnits="userSpaceOnUse"><stop offset="0.02" stop-color="#fff" stop-opacity="0.2"/><stop offset="0.32" stop-color="#f2f3f4" stop-opacity="0.19"/><stop offset="0.58" stop-color="#cacdd1" stop-opacity="0.15"/><stop offset="0.81" stop-color="#878d96" stop-opacity="0.08"/><stop offset="1" stop-color="#3b4554" stop-opacity="0.01"/></linearGradient></defs><title>icon-3d</title><g id="gradient"><path class="cls-1" d="M19,17.09a.51.51,0,0,0-.5-.5h0a.5.5,0,0,0-.49.51v.19l-5.5-5.5V6.92l.15.14a.49.49,0,0,0,.7-.7L12,5,10.65,6.37a.5.5,0,0,0,0,.71.52.52,0,0,0,.35.14.51.51,0,0,0,.36-.15l.14-.14v4.86L6,17.29v-.2a.5.5,0,0,0-1,0V19H6.92a.5.5,0,0,0,.5-.5.5.5,0,0,0-.5-.5H6.71L12,12.7,17.3,18h-.23a.5.5,0,0,0,0,1H19Z"/></g><g id="export"><g id="_3d_" data-name="&lt;3d&gt;"><g id="_grid_" data-name="&lt;grid&gt;"><rect class="cls-2" x="6.5" y="3" width="2" height="2"/><rect class="cls-2" x="12.5" y="12" width="2" height="2"/><rect class="cls-2" x="15.5" y="6" width="2" height="2"/><rect class="cls-2" x="15.5" y="12" width="2" height="2"/><rect class="cls-2" x="15.5" y="3" width="2" height="2"/><rect class="cls-2" x="9.5" y="3" width="2" height="2"/><rect class="cls-2" x="12.5" y="3" width="2" height="2"/><rect class="cls-2" x="15.5" y="9" width="2" height="2"/><rect class="cls-2" x="9.5" y="9" width="2" height="2"/><rect class="cls-2" x="12.5" y="6" width="2" height="2"/><rect class="cls-2" x="18.5" y="3" width="2.5" height="2"/><rect class="cls-2" x="12.5" y="9" width="2" height="2"/><rect class="cls-2" x="9.5" y="6" width="2" height="2"/><rect class="cls-2" x="9.5" y="12" width="2" height="2"/><rect class="cls-2" x="18.5" y="9" width="2.5" height="2"/><rect class="cls-2" x="18.5" y="6" width="2.5" height="2"/><rect class="cls-2" x="18.5" y="12" width="2.5" height="2"/><rect class="cls-2" x="18.5" y="15" width="2.5" height="2"/><polygon class="cls-2" points="18.5 18 18.5 21 17.5 21 17.5 18 15.5 18 15.5 21 14.5 21 14.5 18 12.5 18 12.5 21 11.5 21 11.5 18 9.5 18 9.5 21 8.5 21 8.5 18 6.5 18 6.5 21 5.5 21 5.5 18 3 18 3 17 5.5 17 5.5 15 3 15 3 14 5.5 14 5.5 12 3 12 3 11 5.5 11 5.5 9 3 9 3 8 5.5 8 5.5 6 3 6 3 5 5.5 5 5.5 3 3 3 3 21 21 21 21 18 18.5 18"/><rect class="cls-2" x="6.5" y="15" width="2" height="2"/><rect class="cls-2" x="6.5" y="9" width="2" height="2"/><rect class="cls-2" x="15.5" y="15" width="2" height="2"/><rect class="cls-2" x="6.5" y="12" width="2" height="2"/><rect class="cls-2" x="9.5" y="15" width="2" height="2"/><rect class="cls-2" x="6.5" y="6" width="2" height="2"/><rect class="cls-2" x="12.5" y="15" width="2" height="2"/><path class="cls-3" d="M2,2V22H22V2ZM21,5H18.5V3H21ZM12.5,8V6h2V8Zm2,1v2h-2V9Zm-3-1h-2V6h2Zm0,1v2h-2V9Zm0,3v2h-2V12Zm1,0h2v2h-2Zm3,0h2v2h-2Zm0-1V9h2v2Zm0-3V6h2V8Zm0-3V3h2V5Zm-1,0h-2V3h2Zm-3,0h-2V3h2Zm-3,0h-2V3h2Zm0,1V8h-2V6Zm0,3v2h-2V9Zm0,3v2h-2V12Zm0,3v2h-2V15Zm1,0h2v2h-2Zm3,0h2v2h-2Zm3,0h2v2h-2Zm3,0H21v2H18.5Zm0-1V12H21v2Zm0-3V9H21v2Zm0-3V6H21V8ZM3,21V3H5.5V5H3V6H5.5V8H3V9H5.5v2H3v1H5.5v2H3v1H5.5v2H3v1H5.5v3h1V18h2v3h1V18h2v3h1V18h2v3h1V18h2v3h1V18H21v3Z"/></g><g id="_xyz_" data-name="&lt;xyz&gt;"><path id="_green_" data-name="&lt;green&gt;" class="cls-4" d="M12.36,11.64a.51.51,0,0,0-.71,0L6,17.29v-.2a.5.5,0,0,0-1,0V19H6.92a.5.5,0,0,0,.5-.5.5.5,0,0,0-.5-.5H6.71l5.65-5.65A.51.51,0,0,0,12.36,11.64Z"/><path id="_red_" data-name="&lt;red&gt;" class="cls-5" d="M13.35,6.36,12,5,10.65,6.37a.5.5,0,0,0,0,.71.52.52,0,0,0,.35.14.51.51,0,0,0,.36-.15l.14-.14V12a.51.51,0,0,0,.5.5.5.5,0,0,0,.5-.5V6.92l.15.14a.49.49,0,0,0,.7-.7Z"/><path id="_blue_" data-name="&lt;blue&gt;" class="cls-6" d="M19,17.09a.51.51,0,0,0-.5-.5h0a.5.5,0,0,0-.49.51v.19l-5.64-5.65a.51.51,0,0,0-.71,0,.5.5,0,0,0,0,.71L17.3,18h-.23a.5.5,0,0,0,0,1H19Z"/></g><path id="_gradient_" data-name="&lt;gradient&gt;" class="cls-1" d="M19,17.09a.51.51,0,0,0-.5-.5h0a.5.5,0,0,0-.49.51v.19l-5.5-5.5V6.92l.15.14a.49.49,0,0,0,.7-.7L12,5,10.65,6.37a.5.5,0,0,0,0,.71.52.52,0,0,0,.35.14.51.51,0,0,0,.36-.15l.14-.14v4.86L6,17.29v-.2a.5.5,0,0,0-1,0V19H6.92a.5.5,0,0,0,.5-.5.5.5,0,0,0-.5-.5H6.71L12,12.7,17.3,18h-.23a.5.5,0,0,0,0,1H19Z"/></g></g></svg>