<svg xmlns="http://www.w3.org/2000/svg" xmlns:xlink="http://www.w3.org/1999/xlink" width="24" height="24" viewBox="0 0 24 24"><defs><style>.cls-1{fill:url(#icon_gradient);}.cls-2{fill:url(#icon_gradient-2);}.cls-3{fill:url(#icon_gradient-3);}.cls-4{fill:url(#icon_gradient-4);}.cls-5{fill:url(#icon_gradient-5);}.cls-6{fill:#f1f1f3;stroke:#f1f1f3;stroke-miterlimit:10;}.cls-7{fill:#2760ff;}</style><linearGradient id="icon_gradient" x1="4" y1="5.5" x2="13" y2="5.5" gradientUnits="userSpaceOnUse"><stop offset="0.02" stop-color="#fff" stop-opacity="0.2"/><stop offset="0.32" stop-color="#f2f3f4" stop-opacity="0.19"/><stop offset="0.58" stop-color="#cacdd1" stop-opacity="0.15"/><stop offset="0.81" stop-color="#878d96" stop-opacity="0.08"/><stop offset="1" stop-color="#3b4554" stop-opacity="0.01"/></linearGradient><linearGradient id="icon_gradient-2" x1="4" y1="8.5" x2="13" y2="8.5" xlink:href="#icon_gradient"/><linearGradient id="icon_gradient-3" x1="4" y1="11.5" x2="20" y2="11.5" xlink:href="#icon_gradient"/><linearGradient id="icon_gradient-4" x1="4" y1="14.5" x2="20" y2="14.5" xlink:href="#icon_gradient"/><linearGradient id="icon_gradient-5" x1="4" y1="17.5" x2="20" y2="17.5" xlink:href="#icon_gradient"/></defs><title>icon-text</title><g id="gradient"><path class="cls-1" d="M4.5,6h8a.5.5,0,0,0,.5-.5.51.51,0,0,0-.5-.5h-8a.5.5,0,0,0-.5.5A.5.5,0,0,0,4.5,6Z"/><path class="cls-2" d="M4.5,9h8a.5.5,0,0,0,.5-.5.51.51,0,0,0-.5-.5h-8a.5.5,0,0,0-.5.5A.5.5,0,0,0,4.5,9Z"/><path class="cls-3" d="M4.5,12h15a.5.5,0,0,0,.5-.5.51.51,0,0,0-.5-.5H4.5a.5.5,0,0,0-.5.5A.5.5,0,0,0,4.5,12Z"/><path class="cls-4" d="M19.5,14H4.5a.5.5,0,0,0-.5.5.5.5,0,0,0,.5.5h15a.5.5,0,0,0,.5-.5A.51.51,0,0,0,19.5,14Z"/><path class="cls-5" d="M19.5,17H4.5a.5.5,0,0,0-.5.5.5.5,0,0,0,.5.5h15a.5.5,0,0,0,.5-.5A.51.51,0,0,0,19.5,17Z"/></g><g id="export"><g id="_text_" data-name="&lt;text&gt;"><g id="_artwork_" data-name="&lt;artwork&gt;"><rect id="_paper_" data-name="&lt;paper&gt;" class="cls-6" x="2.5" y="2.5" width="18.98" height="19"/><g id="_text_2" data-name="&lt;text&gt;"><path class="cls-7" d="M4.5,6h8a.5.5,0,0,0,.5-.5.51.51,0,0,0-.5-.5h-8a.5.5,0,0,0-.5.5A.5.5,0,0,0,4.5,6Z"/><path class="cls-7" d="M4.5,9h8a.5.5,0,0,0,.5-.5.51.51,0,0,0-.5-.5h-8a.5.5,0,0,0-.5.5A.5.5,0,0,0,4.5,9Z"/><path class="cls-7" d="M4.5,12h15a.5.5,0,0,0,.5-.5.51.51,0,0,0-.5-.5H4.5a.5.5,0,0,0-.5.5A.5.5,0,0,0,4.5,12Z"/><path class="cls-7" d="M19.5,14H4.5a.5.5,0,0,0-.5.5.5.5,0,0,0,.5.5h15a.5.5,0,0,0,.5-.5A.51.51,0,0,0,19.5,14Z"/><path class="cls-7" d="M19.5,17H4.5a.5.5,0,0,0-.5.5.5.5,0,0,0,.5.5h15a.5.5,0,0,0,.5-.5A.51.51,0,0,0,19.5,17Z"/></g></g><g id="_gradient_" data-name="&lt;gradient&gt;"><path class="cls-1" d="M4.5,6h8a.5.5,0,0,0,.5-.5.51.51,0,0,0-.5-.5h-8a.5.5,0,0,0-.5.5A.5.5,0,0,0,4.5,6Z"/><path class="cls-2" d="M4.5,9h8a.5.5,0,0,0,.5-.5.51.51,0,0,0-.5-.5h-8a.5.5,0,0,0-.5.5A.5.5,0,0,0,4.5,9Z"/><path class="cls-3" d="M4.5,12h15a.5.5,0,0,0,.5-.5.51.51,0,0,0-.5-.5H4.5a.5.5,0,0,0-.5.5A.5.5,0,0,0,4.5,12Z"/><path class="cls-4" d="M19.5,14H4.5a.5.5,0,0,0-.5.5.5.5,0,0,0,.5.5h15a.5.5,0,0,0,.5-.5A.51.51,0,0,0,19.5,14Z"/><path class="cls-5" d="M19.5,17H4.5a.5.5,0,0,0-.5.5.5.5,0,0,0,.5.5h15a.5.5,0,0,0,.5-.5A.51.51,0,0,0,19.5,17Z"/></g></g></g></svg>