<svg id="export" xmlns="http://www.w3.org/2000/svg" xmlns:xlink="http://www.w3.org/1999/xlink" width="24" height="24" viewBox="0 0 24 24"><defs><style>.cls-1{fill:#404554;}.cls-2{fill:url(#icon_gradient);}.cls-3{fill:url(#icon_gradient-2);}.cls-4{fill:url(#icon_gradient-3);}</style><linearGradient id="icon_gradient" x1="16.04" y1="12" x2="21.73" y2="12" gradientUnits="userSpaceOnUse"><stop offset="0.02" stop-color="#fff" stop-opacity="0.2"/><stop offset="0.32" stop-color="#f2f3f4" stop-opacity="0.19"/><stop offset="0.58" stop-color="#cacdd1" stop-opacity="0.15"/><stop offset="0.81" stop-color="#878d96" stop-opacity="0.08"/><stop offset="1" stop-color="#3b4554" stop-opacity="0.01"/></linearGradient><linearGradient id="icon_gradient-2" x1="2.3" y1="12" x2="7.99" y2="12" xlink:href="#icon_gradient"/><linearGradient id="icon_gradient-3" x1="9.61" y1="11.96" x2="14.32" y2="11.96" xlink:href="#icon_gradient"/></defs><title>icon-code</title><g id="_code_" data-name="&lt;code&gt;"><g id="_artwork_" data-name="&lt;artwork&gt;"><path class="cls-1" d="M16.9,7.16a.5.5,0,0,0-.71.71L20.32,12l-4.13,4.13a.5.5,0,0,0,0,.71.48.48,0,0,0,.7,0L21.73,12Z"/><path class="cls-1" d="M3.71,12,7.84,7.87a.5.5,0,0,0-.71-.71L2.3,12l4.84,4.84a.48.48,0,0,0,.7,0,.5.5,0,0,0,0-.71Z"/><path class="cls-1" d="M13.94,4a.5.5,0,0,0-.6.37l-3.71,15a.49.49,0,0,0,.36.6l.12,0a.51.51,0,0,0,.49-.38l3.71-15A.51.51,0,0,0,13.94,4Z"/></g><g id="_gradient_" data-name="&lt;gradient&gt;"><path class="cls-2" d="M16.9,7.16a.5.5,0,0,0-.71.71L20.32,12l-4.13,4.13a.5.5,0,0,0,0,.71.48.48,0,0,0,.7,0L21.73,12Z"/><path class="cls-3" d="M3.71,12,7.84,7.87a.5.5,0,0,0-.71-.71L2.3,12l4.84,4.84a.48.48,0,0,0,.7,0,.5.5,0,0,0,0-.71Z"/><path class="cls-4" d="M13.94,4a.5.5,0,0,0-.6.37l-3.71,15a.49.49,0,0,0,.36.6l.12,0a.51.51,0,0,0,.49-.38l3.71-15A.51.51,0,0,0,13.94,4Z"/></g></g></svg>