<svg xmlns="http://www.w3.org/2000/svg" xmlns:xlink="http://www.w3.org/1999/xlink" width="24" height="24" viewBox="0 0 24 24"><defs><style>.cls-1{fill:url(#icon_gradient);}.cls-2{fill:url(#icon_gradient-2);}.cls-3{fill:#217346;}</style><linearGradient id="icon_gradient" x1="5.99" y1="7.7" x2="9.99" y2="7.7" gradientUnits="userSpaceOnUse"><stop offset="0.02" stop-color="#fff" stop-opacity="0.2"/><stop offset="0.32" stop-color="#f2f3f4" stop-opacity="0.19"/><stop offset="0.58" stop-color="#cacdd1" stop-opacity="0.15"/><stop offset="0.81" stop-color="#878d96" stop-opacity="0.08"/><stop offset="1" stop-color="#3b4554" stop-opacity="0.01"/></linearGradient><linearGradient id="icon_gradient-2" x1="3.5" y1="12" x2="20.5" y2="12" xlink:href="#icon_gradient"/></defs><title>icon-excel</title><g id="gradient"><path class="cls-1" d="M8.62,7.7,9.89,6a.5.5,0,0,0-.1-.7.51.51,0,0,0-.7.1L8,6.87,6.89,5.4a.5.5,0,1,0-.8.6L7.37,7.7,6.09,9.4a.51.51,0,0,0,.1.7.5.5,0,0,0,.7-.1L8,8.54,9.09,10a.51.51,0,0,0,.4.2.47.47,0,0,0,.3-.1.5.5,0,0,0,.1-.7Z"/><path class="cls-2" d="M19.5,3.5H3.5v17h17V3.5Zm-4,1v3h-3v-3Zm-4,8v3h-3v-3Zm1,0h3v3h-3Zm0-1v-3h3v3Zm-8-7h7v7h-7Zm0,8h3v3h-3Zm0,7v-3h3v3Zm4,0v-3h3v3Zm4,0v-3h3v3Zm7,0h-3v-3h3Zm0-4h-3v-3h3Zm0-4h-3v-3h3Zm0-4h-3v-3h3Z"/></g><g id="export"><g id="_excel_" data-name="&lt;excel&gt;"><g id="_artwork_" data-name="&lt;artwork&gt;"><path class="cls-3" d="M8.62,7.7,9.89,6a.5.5,0,0,0-.1-.7.51.51,0,0,0-.7.1L8,6.87,6.89,5.4a.5.5,0,0,0-.7-.1.51.51,0,0,0-.1.7L7.37,7.7,6.09,9.4a.51.51,0,0,0,.1.7.49.49,0,0,0,.3.1.51.51,0,0,0,.4-.2L8,8.54,9.09,10a.51.51,0,0,0,.4.2.47.47,0,0,0,.3-.1.5.5,0,0,0,.1-.7Z"/><path id="_grid_" data-name="&lt;grid&gt;" class="cls-3" d="M19.5,3.5H3.5v17h17V3.5Zm-4,1v3h-3v-3Zm-4,8v3h-3v-3Zm1,0h3v3h-3Zm0-1v-3h3v3Zm-8-7h7v7h-7Zm0,8h3v3h-3Zm0,7v-3h3v3Zm4,0v-3h3v3Zm4,0v-3h3v3Zm7,0h-3v-3h3Zm0-4h-3v-3h3Zm0-4h-3v-3h3Zm0-4h-3v-3h3Z"/></g><g id="_gradient_" data-name="&lt;gradient&gt;"><path class="cls-1" d="M8.62,7.7,9.89,6a.5.5,0,0,0-.1-.7.51.51,0,0,0-.7.1L8,6.87,6.89,5.4a.5.5,0,1,0-.8.6L7.37,7.7,6.09,9.4a.51.51,0,0,0,.1.7.5.5,0,0,0,.7-.1L8,8.54,9.09,10a.51.51,0,0,0,.4.2.47.47,0,0,0,.3-.1.5.5,0,0,0,.1-.7Z"/><path class="cls-2" d="M19.5,3.5H3.5v17h17V3.5Zm-4,1v3h-3v-3Zm-4,8v3h-3v-3Zm1,0h3v3h-3Zm0-1v-3h3v3Zm-8-7h7v7h-7Zm0,8h3v3h-3Zm0,7v-3h3v3Zm4,0v-3h3v3Zm4,0v-3h3v3Zm7,0h-3v-3h3Zm0-4h-3v-3h3Zm0-4h-3v-3h3Zm0-4h-3v-3h3Z"/></g></g></g></svg>