<svg width="24" height="24" xmlns="http://www.w3.org/2000/svg" xmlns:xlink="http://www.w3.org/1999/xlink" viewBox="0 0 24 24"><defs><style>.cls-1,.cls-2{fill:#e94b4b;}.cls-1{stroke:#e94b4b;stroke-miterlimit:10;}.cls-3{fill:url(#icon_gradient);}.cls-4{fill:url(#icon_gradient-2);}.cls-5{fill:url(#icon_gradient-3);}</style><linearGradient id="icon_gradient" x1="6.96" y1="12" x2="14.91" y2="12" gradientUnits="userSpaceOnUse"><stop offset="0.02" stop-color="#fff" stop-opacity="0.2"/><stop offset="0.32" stop-color="#f2f3f4" stop-opacity="0.19"/><stop offset="0.58" stop-color="#cacdd1" stop-opacity="0.15"/><stop offset="0.81" stop-color="#878d96" stop-opacity="0.08"/><stop offset="1" stop-color="#3b4554" stop-opacity="0.01"/></linearGradient><linearGradient id="icon_gradient-2" x1="16" y1="12" x2="17" y2="12" xlink:href="#icon_gradient"/><linearGradient id="icon_gradient-3" x1="7.01" y1="12" x2="14.97" y2="12" xlink:href="#icon_gradient"/></defs><title>icon-video</title><g id="artwork"><polygon class="cls-1" points="7.51 8 7.51 16 14.01 12 7.51 8"/><rect class="cls-2" x="11.5" y="11.51" width="10" height="1" transform="translate(4.49 28.5) rotate(-90)"/></g><g id="gradient"><polygon class="cls-3" points="6.96 16.9 14.91 12 6.96 7.11 6.96 16.9"/><rect class="cls-4" x="16" y="7" width="1" height="10"/></g><g id="export"><g id="_video_" data-name="&lt;video&gt;"><g id="_artwork_" data-name="&lt;artwork&gt;"><polygon class="cls-1" points="7.51 8 7.51 16 14.01 12 7.51 8"/><rect class="cls-2" x="11.5" y="11.51" width="10" height="1" transform="translate(4.49 28.5) rotate(-90)"/></g><g id="_gradient_" data-name="&lt;gradient&gt;"><polygon class="cls-5" points="7.01 16.9 14.97 12 7.01 7.11 7.01 16.9"/><rect class="cls-4" x="16" y="7" width="1" height="10"/></g></g></g></svg>