<svg xmlns="http://www.w3.org/2000/svg" xmlns:xlink="http://www.w3.org/1999/xlink" width="24" height="24" viewBox="0 0 24 24"><defs><style>.cls-1{fill:url(#icon_gradient);}.cls-2{fill:#2760ff;}</style><linearGradient id="icon_gradient" x1="4.99" y1="12.01" x2="20.01" y2="12.01" gradientUnits="userSpaceOnUse"><stop offset="0.02" stop-color="#fff" stop-opacity="0.2"/><stop offset="0.32" stop-color="#f2f3f4" stop-opacity="0.19"/><stop offset="0.58" stop-color="#cacdd1" stop-opacity="0.15"/><stop offset="0.81" stop-color="#878d96" stop-opacity="0.08"/><stop offset="1" stop-color="#3b4554" stop-opacity="0.01"/></linearGradient></defs><title>icon-microscope</title><g id="gradient"><path class="cls-1" d="M18.39,7.26,20,5.64,18.39,4,16.77,5.64,16,4.83,11.91,8.88l.81.81-1.48,1.47,1.62,1.62,1.48-1.47.81.81,1.22-1.22a6.62,6.62,0,0,1,.16,1.41,7.14,7.14,0,0,1-3,5.69H10V16h2.5a.51.51,0,0,0,.5-.5.5.5,0,0,0-.5-.5h-6a.5.5,0,0,0-.5.5.5.5,0,0,0,.5.5H9v2H5.49a.5.5,0,0,0-.5.5v1a.5.5,0,0,0,.5.5h13a.51.51,0,0,0,.5-.5v-1a.5.5,0,0,0-.5-.5h-3.4a8,8,0,0,0,2.44-5.69,7.63,7.63,0,0,0-.34-2.23l2-2Z"/></g><g id="export"><g id="_microscope_" data-name="&lt;microscope&gt;"><path id="_artwork_" data-name="&lt;artwork&gt;" class="cls-2" d="M18.39,7.26,20,5.64,18.39,4,16.77,5.64,16,4.83,11.91,8.88l.81.81-1.48,1.47,1.62,1.62,1.48-1.47.81.81,1.22-1.22a6.62,6.62,0,0,1,.16,1.41,7.14,7.14,0,0,1-3,5.69H10V16h2.5a.51.51,0,0,0,.5-.5.5.5,0,0,0-.5-.5h-6a.5.5,0,0,0-.5.5.5.5,0,0,0,.5.5H9v2H5.49a.5.5,0,0,0-.5.5v1a.5.5,0,0,0,.5.5h13a.51.51,0,0,0,.5-.5v-1a.5.5,0,0,0-.5-.5h-3.4a8,8,0,0,0,2.44-5.69,7.63,7.63,0,0,0-.34-2.23l2-2Z"/><path id="_gradient_" data-name="&lt;gradient&gt;" class="cls-1" d="M18.39,7.26,20,5.64,18.39,4,16.77,5.64,16,4.83,11.91,8.88l.81.81-1.48,1.47,1.62,1.62,1.48-1.47.81.81,1.22-1.22a6.62,6.62,0,0,1,.16,1.41,7.14,7.14,0,0,1-3,5.69H10V16h2.5a.51.51,0,0,0,.5-.5.5.5,0,0,0-.5-.5h-6a.5.5,0,0,0-.5.5.5.5,0,0,0,.5.5H9v2H5.49a.5.5,0,0,0-.5.5v1a.5.5,0,0,0,.5.5h13a.51.51,0,0,0,.5-.5v-1a.5.5,0,0,0-.5-.5h-3.4a8,8,0,0,0,2.44-5.69,7.63,7.63,0,0,0-.34-2.23l2-2Z"/></g></g></svg>