<svg id="export" width="24" height="24" xmlns="http://www.w3.org/2000/svg" xmlns:xlink="http://www.w3.org/1999/xlink" viewBox="0 0 24 24"><defs><style>.cls-1{fill:#f1f1f3;}.cls-2{fill:#71747c;}.cls-3{fill:url(#icon_gradient);}</style><linearGradient id="icon_gradient" x1="10" y1="10.5" x2="14" y2="10.5" gradientUnits="userSpaceOnUse"><stop offset="0.02" stop-color="#fff" stop-opacity="0.2"/><stop offset="0.32" stop-color="#f2f3f4" stop-opacity="0.19"/><stop offset="0.58" stop-color="#cacdd1" stop-opacity="0.15"/><stop offset="0.81" stop-color="#878d96" stop-opacity="0.08"/><stop offset="1" stop-color="#3b4554" stop-opacity="0.01"/></linearGradient></defs><title>icon-zip</title><g id="_zip_" data-name="&lt;zip&gt;"><g id="_artwork_" data-name="&lt;artwork&gt;"><rect class="cls-1" x="2.01" y="2" width="19.98" height="20"/><path class="cls-2" d="M12.5,8h1a.5.5,0,0,0,0-1h-1V6h1a.5.5,0,0,0,0-1h-1V2h-1V4h-1a.5.5,0,0,0,0,1h1V6h-1a.5.5,0,0,0,0,1h1V8h-1a.5.5,0,0,0,0,1h1v1h-1a.5.5,0,0,0,0,1h1v1h-1a.5.5,0,0,0,0,1h1v2H10v4h4V15H12.5V14h1a.5.5,0,0,0,0-1h-1V12h1a.5.5,0,0,0,0-1h-1V10h1a.5.5,0,0,0,0-1h-1V8Z"/></g><path id="_gradient_" data-name="&lt;gradient&gt;" class="cls-3" d="M14,15H12.5V14h1a.5.5,0,0,0,0-1h-1V12h1a.5.5,0,0,0,0-1h-1V10h1a.5.5,0,0,0,0-1h-1V8h1a.5.5,0,0,0,0-1h-1V6h1a.5.5,0,0,0,0-1h-1V2h-1V4h-1a.5.5,0,0,0,0,1h1V6h-1a.5.5,0,0,0,0,1h1V8h-1a.5.5,0,0,0,0,1h1v1h-1a.5.5,0,0,0,0,1h1v1h-1a.5.5,0,0,0,0,1h1v2H10v4h4Z"/></g></svg>