<svg id="export" width="24" height="24" xmlns="http://www.w3.org/2000/svg" xmlns:xlink="http://www.w3.org/1999/xlink" viewBox="0 0 24 24"><defs><style>.cls-1{fill:#ebeff5;}.cls-2{fill:#2a5699;}.cls-3{fill:url(#icon_gradient);}.cls-4{fill:url(#icon_gradient-2);}.cls-5{fill:url(#icon_gradient-3);}.cls-6{fill:url(#icon_gradient-4);}.cls-7{fill:url(#icon_gradient-5);}.cls-8{fill:url(#icon_gradient-6);}</style><linearGradient id="icon_gradient" x1="4.04" y1="6.51" x2="8.93" y2="6.51" gradientUnits="userSpaceOnUse"><stop offset="0.02" stop-color="#fff" stop-opacity="0.2"/><stop offset="0.32" stop-color="#f2f3f4" stop-opacity="0.19"/><stop offset="0.58" stop-color="#cacdd1" stop-opacity="0.15"/><stop offset="0.81" stop-color="#878d96" stop-opacity="0.08"/><stop offset="1" stop-color="#3b4554" stop-opacity="0.01"/></linearGradient><linearGradient id="icon_gradient-2" x1="10.98" y1="5.5" x2="19.98" y2="5.5" xlink:href="#icon_gradient"/><linearGradient id="icon_gradient-3" x1="10.98" y1="8.5" x2="19.98" y2="8.5" xlink:href="#icon_gradient"/><linearGradient id="icon_gradient-4" x1="3.98" y1="11.5" x2="19.98" y2="11.5" xlink:href="#icon_gradient"/><linearGradient id="icon_gradient-5" x1="3.98" y1="14.5" x2="19.98" y2="14.5" xlink:href="#icon_gradient"/><linearGradient id="icon_gradient-6" x1="3.98" y1="17.5" x2="19.98" y2="17.5" xlink:href="#icon_gradient"/></defs><title>icon-word</title><g id="_word_" data-name="&lt;word&gt;"><g id="_artwork_" data-name="&lt;artwork&gt;"><rect class="cls-1" x="2.02" y="2" width="19.98" height="20"/><path class="cls-2" d="M8.51,4a.49.49,0,0,0-.57.42L7.58,6.64,7.09,5.4A.64.64,0,0,0,6.49,5a.63.63,0,0,0-.59.41L5.39,6.64,5,4.44A.5.5,0,0,0,4.47,4a.51.51,0,0,0-.42.58l.64,4A.5.5,0,0,0,5.13,9h.06a.5.5,0,0,0,.46-.32L6.49,6.6l.83,2.09a.5.5,0,0,0,1-.11l.64-4A.5.5,0,0,0,8.51,4Z"/><rect class="cls-2" x="10.98" y="5" width="9" height="1" rx="0.5" ry="0.5"/><rect class="cls-2" x="10.98" y="8" width="9" height="1" rx="0.5" ry="0.5"/><rect class="cls-2" x="3.98" y="11" width="16" height="1" rx="0.5" ry="0.5"/><rect class="cls-2" x="3.98" y="14" width="16" height="1" rx="0.5" ry="0.5"/><rect class="cls-2" x="3.98" y="17" width="16" height="1" rx="0.5" ry="0.5"/></g><g id="_gradient_" data-name="&lt;gradient&gt;"><path class="cls-3" d="M5.13,9h.06a.5.5,0,0,0,.46-.32L6.49,6.6l.83,2.09a.5.5,0,0,0,1-.11l.64-4A.5.5,0,0,0,8.51,4a.49.49,0,0,0-.57.42L7.58,6.64,7.09,5.4A.64.64,0,0,0,6.49,5a.63.63,0,0,0-.59.41L5.39,6.64,5,4.44A.5.5,0,0,0,4.47,4a.51.51,0,0,0-.42.58l.64,4A.5.5,0,0,0,5.13,9Z"/><path class="cls-4" d="M11.48,6h8a.5.5,0,0,0,0-1h-8a.5.5,0,0,0,0,1Z"/><path class="cls-5" d="M19.48,8h-8a.5.5,0,0,0,0,1h8a.5.5,0,0,0,0-1Z"/><path class="cls-6" d="M19.48,11h-15a.5.5,0,0,0,0,1h15a.5.5,0,0,0,0-1Z"/><path class="cls-7" d="M19.48,14h-15a.5.5,0,0,0,0,1h15a.5.5,0,1,0,0-1Z"/><path class="cls-8" d="M19.48,17h-15a.5.5,0,0,0,0,1h15a.5.5,0,1,0,0-1Z"/></g></g></svg>