<svg xmlns="http://www.w3.org/2000/svg" xmlns:xlink="http://www.w3.org/1999/xlink" width="24" height="24" viewBox="0 0 24 24"><defs><style>.cls-1{fill:url(#icon_gradient);}.cls-2{fill:url(#icon_gradient-2);}.cls-3{fill:url(#icon_gradient-3);}.cls-4{fill:url(#icon_gradient-4);}.cls-5{fill:url(#icon_gradient-6);}.cls-6{fill:none;}.cls-7{fill:#71747c;}.cls-8{fill:#404554;}</style><linearGradient id="icon_gradient" x1="17.48" y1="11.5" x2="18.48" y2="11.5" gradientUnits="userSpaceOnUse"><stop offset="0.02" stop-color="#fff" stop-opacity="0.2"/><stop offset="0.32" stop-color="#f2f3f4" stop-opacity="0.19"/><stop offset="0.58" stop-color="#cacdd1" stop-opacity="0.15"/><stop offset="0.81" stop-color="#878d96" stop-opacity="0.08"/><stop offset="1" stop-color="#3b4554" stop-opacity="0.01"/></linearGradient><linearGradient id="icon_gradient-2" x1="17.48" y1="5.5" x2="18.48" y2="5.5" xlink:href="#icon_gradient"/><linearGradient id="icon_gradient-3" x1="2.98" y1="11.75" x2="20.98" y2="11.75" xlink:href="#icon_gradient"/><linearGradient id="icon_gradient-4" x1="17.48" y1="14.5" x2="18.48" y2="14.5" xlink:href="#icon_gradient"/><linearGradient id="icon_gradient-6" x1="17.48" y1="8.5" x2="18.48" y2="8.5" xlink:href="#icon_gradient"/></defs><title>icon-data</title><g id="gradient"><path class="cls-1" d="M18,12a.5.5,0,0,1-.5-.5A.5.5,0,0,1,18,11a.5.5,0,0,1,.5.5A.51.51,0,0,1,18,12Z"/><path class="cls-2" d="M18,5a.5.5,0,0,1,.5.5A.51.51,0,0,1,18,6a.5.5,0,0,1-.5-.5A.5.5,0,0,1,18,5Z"/><path class="cls-3" d="M21,16.49V3.5H3v6H3v1H3v2H3v1H3v3h8.5V19h-4a.5.5,0,0,0,0,1h9a.5.5,0,0,0,0-1h-4V16.49Zm-1-12v2H4v-2Zm-16,3H20v2H4Zm0,3H20v2H4Zm0,3H20v2H4Z"/><circle class="cls-4" cx="17.98" cy="14.5" r="0.5"/><circle class="cls-1" cx="17.98" cy="11.5" r="0.5"/><circle class="cls-5" cx="17.98" cy="8.5" r="0.5"/><circle class="cls-2" cx="17.98" cy="5.5" r="0.5"/></g><g id="export"><g id="_data_" data-name="&lt;data&gt;"><g id="_artwork_" data-name="&lt;artwork&gt;"><path class="cls-6" d="M20,7.48H4v2H20ZM18,9a.5.5,0,0,1-.5-.5A.5.5,0,0,1,18,8a.5.5,0,0,1,.5.5A.51.51,0,0,1,18,9Z"/><path class="cls-6" d="M20,10.48H4v2H20ZM18,12a.5.5,0,0,1-.5-.5A.5.5,0,0,1,18,11a.5.5,0,0,1,.5.5A.51.51,0,0,1,18,12Z"/><path class="cls-6" d="M20,6.48v-2H4v2ZM18,5a.5.5,0,0,1,.5.5A.51.51,0,0,1,18,6a.5.5,0,0,1-.5-.5A.5.5,0,0,1,18,5Z"/><path class="cls-6" d="M20,13.48H4v2H20ZM18,15a.5.5,0,0,1-.5-.5A.5.5,0,0,1,18,14a.5.5,0,0,1,.5.5A.51.51,0,0,1,18,15Z"/><path class="cls-7" d="M21,16.49V3.5H3v6H3v1H3v2H3v1H3v3h8.5V19h-4a.5.5,0,0,0,0,1h9a.5.5,0,0,0,0-1h-4V16.49Zm-1-12v2H4v-2Zm-16,3H20v2H4Zm0,3H20v2H4Zm0,3H20v2H4Z"/><circle class="cls-8" cx="17.98" cy="14.5" r="0.5"/><circle class="cls-8" cx="17.98" cy="11.5" r="0.5"/><circle class="cls-8" cx="17.98" cy="8.5" r="0.5"/><circle class="cls-8" cx="17.98" cy="5.5" r="0.5"/></g><g id="_gradient_" data-name="&lt;gradient&gt;"><path class="cls-1" d="M18,12a.5.5,0,0,1-.5-.5A.5.5,0,0,1,18,11a.5.5,0,0,1,.5.5A.51.51,0,0,1,18,12Z"/><path class="cls-2" d="M18,5a.5.5,0,0,1,.5.5A.51.51,0,0,1,18,6a.5.5,0,0,1-.5-.5A.5.5,0,0,1,18,5Z"/><path class="cls-3" d="M21,16.49V3.5H3v6H3v1H3v2H3v1H3v3h8.5V19h-4a.5.5,0,0,0,0,1h9a.5.5,0,0,0,0-1h-4V16.49Zm-1-12v2H4v-2Zm-16,3H20v2H4Zm0,3H20v2H4Zm0,3H20v2H4Z"/><circle class="cls-4" cx="17.98" cy="14.5" r="0.5"/><circle class="cls-1" cx="17.98" cy="11.5" r="0.5"/><circle class="cls-5" cx="17.98" cy="8.5" r="0.5"/><circle class="cls-2" cx="17.98" cy="5.5" r="0.5"/></g></g></g></svg>