<svg id="artwork" xmlns="http://www.w3.org/2000/svg" xmlns:xlink="http://www.w3.org/1999/xlink" width="24" height="24" viewBox="0 0 24 24"><defs><style>.cls-1{fill:#41d4ca;stroke:#41d4ca;stroke-miterlimit:10;}.cls-2{fill:url(#linear-gradient);}.cls-3{fill:#2c8785;}.cls-4{fill:url(#linear-gradient-2);}.cls-5{fill:#ff7200;}.cls-6{fill:url(#linear-gradient-3);}</style><linearGradient id="linear-gradient" x1="2.06" y1="8.96" x2="15.34" y2="8.96" gradientUnits="userSpaceOnUse"><stop offset="0" stop-color="#41d4ca"/><stop offset="0.13" stop-color="#41d1c7"/><stop offset="0.24" stop-color="#40c6bf" stop-opacity="0.98"/><stop offset="0.35" stop-color="#40b5b1" stop-opacity="0.96"/><stop offset="0.47" stop-color="#3f9d9d" stop-opacity="0.92"/><stop offset="0.57" stop-color="#3d7e83" stop-opacity="0.88"/><stop offset="0.68" stop-color="#3c5964" stop-opacity="0.83"/><stop offset="0.73" stop-color="#3b4554" stop-opacity="0.8"/></linearGradient><linearGradient id="linear-gradient-2" x1="12.26" y1="1.86" x2="10.55" y2="11.6" gradientUnits="userSpaceOnUse"><stop offset="0.06" stop-color="#41d4ca" stop-opacity="0.2"/><stop offset="0.29" stop-color="#40beb8" stop-opacity="0.32"/><stop offset="0.61" stop-color="#3e8286" stop-opacity="0.66"/><stop offset="0.86" stop-color="#3b4554"/></linearGradient><linearGradient id="linear-gradient-3" x1="20.91" y1="19.02" x2="9.51" y2="7.62" gradientUnits="userSpaceOnUse"><stop offset="0.2" stop-color="#ffb700"/><stop offset="0.32" stop-color="#f0a301" stop-opacity="0.95"/><stop offset="0.57" stop-color="#c86e03" stop-opacity="0.83"/><stop offset="0.93" stop-color="#8a1b06" stop-opacity="0.64"/><stop offset="1" stop-color="#7d0a07" stop-opacity="0.6"/></linearGradient></defs><title>icon-matlab</title><path class="cls-1" d="M15.13,2.91c-1.09-.39-2.26,3.7-5,4.72-.65.25-1.18.82-2.09,2l2.28,1.68L8,9.64,2.92,11.71l3.27,3.21,3.39-2"/><path class="cls-2" d="M14.84,3.51A.53.53,0,0,1,15,3.38h0l.33-.94c-.85-.31-1.46.58-2.24,1.7s-1.75,2.52-3.11,3A5.51,5.51,0,0,0,7.71,9.23l-5.65,2.3,4.05,4,3.77-2.2-.26-.43h0Z"/><path class="cls-3" d="M15.17,2.41c-.28-.34-1.78.57-2.55,1.68s-1.75,2.53-3.11,3c-.78.29-1.8,2.12-1.8,2.12l3.06,2.4,4.62-9Z"/><path class="cls-4" d="M15.17,2.41c-.28-.34-1.78.57-2.55,1.68s-1.75,2.53-3.11,3c-.78.29-1.8,2.12-1.8,2.12l3.06,2.4,4.62-9Z"/><path class="cls-5" d="M21.41,16.17c-3.23-9.12-5-13.92-6.31-13.79h0c-.76,0-1.26,1.06-2.42,3.64s-2.86,6.37-4.85,7.61L6.21,15.49,7.88,15c.45-.14.72.39,1.71,2.72.19.46.41,1,.67,1.57l.18.41.43-.14a7,7,0,0,0,2.3-1.22,15,15,0,0,0,1-1.13c.41-.49.87-1,1.41-1.57,1-1,1.28-1.18,1.67-1.18.69,0,1.1.33,2.53,1.6L22,17.93Z"/><path class="cls-6" d="M21.41,16.17c-3.23-9.12-5-13.92-6.31-13.79h0c-.76,0-1.26,1.06-2.42,3.64s-2.86,6.37-4.85,7.61L6.21,15.49,7.88,15c.45-.14.72.39,1.71,2.72.19.46.41,1,.67,1.57l.18.41.43-.14a7,7,0,0,0,2.3-1.22,15,15,0,0,0,1-1.13c.41-.49.87-1,1.41-1.57,1-1,1.28-1.18,1.67-1.18.69,0,1.1.33,2.53,1.6L22,17.93Z"/></svg>