<svg id="artwork" xmlns="http://www.w3.org/2000/svg" xmlns:xlink="http://www.w3.org/1999/xlink" width="24" height="24" viewBox="0 0 24 24"><defs><style>.cls-1{fill:url(#linear-gradient);}.cls-2{fill:url(#linear-gradient-2);}</style><linearGradient id="linear-gradient" x1="-252.67" y1="360.08" x2="-252.64" y2="360.05" gradientTransform="matrix(721.09, 0, 0, -482.94, 182198.33, 173899.99)" gradientUnits="userSpaceOnUse"><stop offset="0" stop-color="#cbced0"/><stop offset="1" stop-color="#84838b"/></linearGradient><linearGradient id="linear-gradient-2" x1="-253.11" y1="360.26" x2="-253.08" y2="360.24" gradientTransform="matrix(398, 0, 0, -406.12, 100746.52, 146321.12)" gradientUnits="userSpaceOnUse"><stop offset="0" stop-color="#276dc3"/><stop offset="1" stop-color="#165caa"/></linearGradient></defs><title>icon-r</title><path class="cls-1" d="M12,17.68c-5.52,0-10-3-10-6.69s4.48-6.7,10-6.7,10,3,10,6.7S17.52,17.68,12,17.68ZM13.53,6.91c-4.2,0-7.6,2.05-7.6,4.58s3.4,4.57,7.6,4.57,7.3-1.4,7.3-4.57S17.73,6.91,13.53,6.91Z"/><path class="cls-2" d="M17.23,14.66a7.61,7.61,0,0,1,1,.36,1.86,1.86,0,0,1,.48.35,1.27,1.27,0,0,1,.22.32l2.39,4H17.42l-1.8-3.38a4.17,4.17,0,0,0-.6-.82.59.59,0,0,0-.45-.21h-.92v4.41H10.24V8.45h6.85s3.12.05,3.12,3A3.18,3.18,0,0,1,17.23,14.66Zm-1.48-3.77H13.68V12.8h2.07a.94.94,0,0,0,.95-1A.89.89,0,0,0,15.75,10.89Z"/></svg>