<svg id="export" xmlns="http://www.w3.org/2000/svg" xmlns:xlink="http://www.w3.org/1999/xlink" width="24" height="24" viewBox="0 0 24 24"><defs><style>.cls-1{fill:#2760ff;}.cls-2{fill:url(#icon_gradient);}</style><linearGradient id="icon_gradient" x1="3.5" y1="12" x2="20.5" y2="12" gradientUnits="userSpaceOnUse"><stop offset="0.02" stop-color="#fff" stop-opacity="0.2"/><stop offset="0.32" stop-color="#f2f3f4" stop-opacity="0.19"/><stop offset="0.58" stop-color="#cacdd1" stop-opacity="0.15"/><stop offset="0.81" stop-color="#878d96" stop-opacity="0.08"/><stop offset="1" stop-color="#3b4554" stop-opacity="0.01"/></linearGradient></defs><title>icon-tabular</title><g id="_tabular_" data-name="&lt;tabular&gt;"><path id="_artwork_" data-name="&lt;artwork&gt;" class="cls-1" d="M19.5,3.5H3.5v17h17V3.5Zm-4,1v3h-3v-3Zm-4,8v3h-3v-3Zm-3-1v-3h3v3Zm4,1h3v3h-3Zm0-1v-3h3v3Zm-1-7v3h-3v-3Zm-7,0h3v3h-3Zm0,4h3v3h-3Zm0,4h3v3h-3Zm0,7v-3h3v3Zm4,0v-3h3v3Zm4,0v-3h3v3Zm7,0h-3v-3h3Zm0-4h-3v-3h3Zm0-4h-3v-3h3Zm0-4h-3v-3h3Z"/><path id="_gradient_" data-name="&lt;gradient&gt;" class="cls-2" d="M19.5,3.5H3.5v17h17V3.5Zm-4,1v3h-3v-3Zm-4,8v3h-3v-3Zm-3-1v-3h3v3Zm4,1h3v3h-3Zm0-1v-3h3v3Zm-1-7v3h-3v-3Zm-7,0h3v3h-3Zm0,4h3v3h-3Zm0,4h3v3h-3Zm0,7v-3h3v3Zm4,0v-3h3v3Zm4,0v-3h3v3Zm7,0h-3v-3h3Zm0-4h-3v-3h3Zm0-4h-3v-3h3Zm0-4h-3v-3h3Z"/></g></svg>