<svg width="60" height="60" viewBox="0 0 60 60" fill="none" xmlns="http://www.w3.org/2000/svg">
<g id="a" clip-path="url(#clip0_104_127)">
<path id="Vector" d="M58.8694 0H1.13058C0.506177 0 0 0.506177 0 1.13058V58.8694C0 59.4938 0.506177 60 1.13058 60H58.8694C59.4938 60 60 59.4938 60 58.8694V1.13058C60 0.506177 59.4938 0 58.8694 0Z" fill="#FFFFFF"/>
<g id="Group 12964">
<path id="Vector_2" d="M46.3906 15.945V14H13V48H46.3906V46.055H14.945V35.37H33.4601V33.425H14.945V15.945H46.3906Z" fill="black"/>
<path id="Vector_3" d="M40.4713 41.5973H22.8244V40.3035H39.1774V28.5667H19.8192V20.7866H40.4964V22.0805H21.1131V27.2644H40.4713V41.5973Z" fill="#3E7877"/>
<path id="Vector_4" d="M22.4733 39.5856V41.8227H20.2362V39.5856H22.4733ZM23.2998 38.7675H19.4181V42.6492H23.2998V38.7675Z" fill="#3E7877"/>
</g>
</g>
<defs>
<clipPath id="clip0_104_127">
<rect width="60" height="60" fill="white"/>
</clipPath>
</defs>
</svg>
