<svg width="240" height="18" viewBox="0 0 240 18" fill="none" xmlns="http://www.w3.org/2000/svg">
<g id="LogoType: Epilepsy,Science" clip-path="url(#clip0_104_133)">
<path id="Vector" d="M13.0655 16.0778V17.6988H0V0H12.6769V1.62106H1.95242V7.91043H11.511V9.50492H1.95242V16.0778H13.0655Z" fill="black"/>
<path id="Vector_2" d="M31.0167 6.06791C31.0167 9.83268 28.1667 12.1093 23.4661 12.1093H18.5064V17.6988H16.554V0H23.4753C28.176 0 31.0259 2.27657 31.0259 6.06791H31.0167ZM29.0643 6.06791C29.0643 3.23327 27.1118 1.62106 23.4106 1.62106H18.4971V10.4705H23.4106C27.1026 10.4705 29.0643 8.84941 29.0643 6.07677V6.06791Z" fill="black"/>
<path id="Vector_3" d="M34.7457 0H36.6982V17.69H34.7457V0Z" fill="black"/>
<path id="Vector_4" d="M41.5006 0H43.453V16.0778H53.8074V17.6988H41.5006V0Z" fill="black"/>
<path id="Vector_5" d="M68.6494 16.0778V17.6988H55.5839V0H68.2607V1.62106H57.5455V7.91043H67.1041V9.50492H57.5455V16.0778H68.6586H68.6494Z" fill="black"/>
<path id="Vector_6" d="M86.6006 6.06791C86.6006 9.83268 83.7506 12.1093 79.05 12.1093H74.0902V17.6988H72.1378V0H79.0592C83.7598 0 86.6098 2.27657 86.6098 6.06791H86.6006ZM84.6481 6.06791C84.6481 3.23327 82.6957 1.62106 78.9944 1.62106H74.081V10.4705H78.9944C82.6865 10.4705 84.6481 8.84941 84.6481 6.07677V6.06791Z" fill="black"/>
<path id="Vector_7" d="M88.3957 15.6969L89.1637 14.253C90.487 15.4931 92.8373 16.4055 95.2616 16.4055C98.7223 16.4055 100.221 15.0148 100.221 13.2697C100.221 8.41535 88.8399 11.4006 88.8399 4.85433C88.8399 2.25 90.9496 0 95.6502 0C97.7322 0 99.8974 0.584646 101.378 1.56791L100.721 3.0561C99.1387 2.07283 97.2881 1.59449 95.6502 1.59449C92.2728 1.59449 90.7645 3.03839 90.7645 4.80118C90.7645 9.65551 102.146 6.72343 102.146 13.1634C102.146 15.7677 99.9807 17.9911 95.2523 17.9911C92.4764 17.9911 89.7559 17.0522 88.3865 15.688L88.3957 15.6969Z" fill="black"/>
<path id="Vector_8" d="M112.084 11.5778V17.6988H110.159V11.5778L102.766 0H104.848L111.186 9.93012L117.525 0H119.477L112.084 11.5778Z" fill="black"/>
<path id="Vector_9" d="M127.185 15.6969L127.953 14.253C129.276 15.4931 131.627 16.4055 134.051 16.4055C137.512 16.4055 139.011 15.0148 139.011 13.2697C139.011 8.41535 127.629 11.4006 127.629 4.85433C127.629 2.25 129.739 0 134.44 0C136.522 0 138.687 0.584646 140.167 1.56791L139.51 3.0561C137.928 2.07283 136.077 1.59449 134.44 1.59449C131.062 1.59449 129.554 3.03839 129.554 4.80118C129.554 9.65551 140.935 6.72343 140.935 13.1634C140.935 15.7677 138.77 17.9911 134.042 17.9911C131.266 17.9911 128.545 17.0522 127.176 15.688L127.185 15.6969Z" fill="#3E7877"/>
<path id="Vector_10" d="M143.202 9C143.202 3.81791 147.32 0 152.89 0C155.583 0 158.017 0.859252 159.645 2.57776L158.405 3.76476C156.897 2.30315 155.056 1.66535 152.937 1.66535C148.477 1.66535 145.118 4.80118 145.118 8.99114C145.118 13.1811 148.467 16.3169 152.937 16.3169C155.046 16.3169 156.897 15.688 158.405 14.1909L159.645 15.378C158.008 17.0965 155.583 17.9823 152.863 17.9823C147.32 17.9823 143.202 14.1644 143.202 8.98228V9Z" fill="#3E7877"/>
<path id="Vector_11" d="M163.143 0H165.095V17.69H163.143V0Z" fill="#3E7877"/>
<path id="Vector_12" d="M183.509 16.0778V17.6988H170.444V0H183.121V1.62106H172.405V7.91043H181.964V9.50492H172.405V16.0778H183.518H183.509Z" fill="#3E7877"/>
<path id="Vector_13" d="M202.969 0V17.69H201.359L189.478 3.33071V17.69H187.525V0H189.135L201.044 14.3593V0H202.969Z" fill="#3E7877"/>
<path id="Vector_14" d="M206.975 9C206.975 3.81791 211.093 0 216.663 0C219.356 0 221.79 0.859252 223.418 2.57776L222.178 3.76476C220.67 2.30315 218.829 1.66535 216.71 1.66535C212.25 1.66535 208.891 4.80118 208.891 8.99114C208.891 13.1811 212.24 16.3169 216.71 16.3169C218.819 16.3169 220.67 15.688 222.178 14.1909L223.418 15.378C221.78 17.0965 219.356 17.9823 216.636 17.9823C211.093 17.9823 206.975 14.1644 206.975 8.98228V9Z" fill="#3E7877"/>
<path id="Vector_15" d="M240 16.0778V17.6988H226.934V0H239.611V1.62106H228.896V7.91043H238.455V9.50492H228.896V16.0778H240.009H240Z" fill="#3E7877"/>
<path id="Vector_16" d="M119.598 16.3642C119.598 15.5846 120.236 15 120.995 15C121.754 15 122.42 15.5846 122.42 16.3642C122.42 17.1437 121.763 17.7549 120.995 17.7549C120.227 17.7549 119.598 17.1526 119.598 16.3642Z" fill="#83CFAB"/>
</g>
<defs>
<clipPath id="clip0_104_133">
<rect width="240" height="18" fill="white"/>
</clipPath>
</defs>
</svg>
